<svg xmlns="http://www.w3.org/2000/svg" viewBox="0 0 24 24" fill="#A2AAAD">
  <path d="M20.485 2.515c-.39-.39-1.023-.39-1.414 0L12 9.586 4.929 2.515c-.39-.39-1.023-.39-1.414 0s-.39 1.023 0 1.414L10.586 11l-7.071 7.071c-.39.39-.39 1.023 0 1.414.195.195.451.293.707.293s.512-.098.707-.293L12 12.414l7.071 7.071c.195.195.451.293.707.293s.512-.098.707-.293c.39-.39.39-1.023 0-1.414L13.414 11l7.071-7.071c.39-.391.39-1.024 0-1.414zM12 7c1.103 0 2-.897 2-2s-.897-2-2-2-2 .897-2 2 .897 2 2 2zm-5 6c0-1.103-.897-2-2-2s-2 .897-2 2 .897 2 2 2 2-.897 2-2zm10 0c0-1.103-.897-2-2-2s-2 .897-2 2 .897 2 2 2 2-.897 2-2zm2 6c-1.103 0-2 .897-2 2s.897 2 2 2 2-.897 2-2-.897-2-2-2zm-14 0c-1.103 0-2 .897-2 2s.897 2 2 2 2-.897 2-2-.897-2-2-2z"/>
</svg>
